<!DOCTYPE svg PUBLIC "-//W3C//DTD SVG 1.1//EN" "http://www.w3.org/Graphics/SVG/1.1/DTD/svg11.dtd">
<!-- Uploaded to: SVG Repo, www.svgrepo.com, Transformed by: SVG Repo Mixer Tools -->
<svg fill="#602A90" height="800px" width="800px" version="1.1" id="Layer_1" xmlns="http://www.w3.org/2000/svg" xmlns:xlink="http://www.w3.org/1999/xlink" viewBox="0 0 459.653 459.653" xml:space="preserve">
<g id="SVGRepo_bgCarrier" stroke-width="0"/>
<g id="SVGRepo_tracerCarrier" stroke-linecap="round" stroke-linejoin="round"/>
<g id="SVGRepo_iconCarrier"> <g> <g> <g> <circle cx="84.8" cy="80.77" r="29.041"/> <path d="M91.427,254.46l4.499-54.728l-1.509,0.878c-8.002,4.659-18.083,2.541-23.597-4.592l-27.293-35.231l34.486,25.505 c4.531,3.351,10.623,3.686,15.494,0.849l62.437-36.355c6.736-3.922,9.017-12.562,5.095-19.298 c-3.922-6.736-12.563-9.018-19.298-5.095l-54.41,31.682l-27.019-19.982l22.601,8.557l15.879-9.246 c-2.903-7.237-9.675-12.611-17.974-13.294l-37.774-3.105c-11.698-0.962-21.961,7.742-22.923,19.441l-6.712,108.861l8.902,58.042 L0.607,386.506c-2.473,9.02,2.835,18.338,11.855,20.811c9.026,2.473,18.339-2.84,20.812-11.855l22.657-82.637 c0.629-2.294,0.768-4.694,0.407-7.045l-8.224-53.621l6.589,0.542l20.203,55.082l-16.877,79.692 c-1.938,9.15,3.91,18.14,13.06,20.078c9.151,1.937,18.14-3.91,20.078-13.06l17.886-84.459c0.659-3.114,0.428-6.352-0.668-9.341 L91.427,254.46z"/> <path d="M212.305,242.792l76.602,50.594c6.024,3.979,14.027,3.398,19.417-1.532c2.859-0.897-1.355,1.594,60.82-39.44 l65.134,9.661c8.151,1.213,15.743-4.42,16.952-12.573c1.209-8.153-4.42-15.743-12.573-16.952l-70.78-10.498 c-3.638-0.541-7.343,0.282-10.41,2.307l-31.008,20.465l-12.504-9.747c-11.171,11.689-7.716,8.073-12.674,13.262 c-5.057,5.292-12.797,6.496-19.078,3.55l-44.944-21.165l47.216,8.408c4.09,0.728,8.287-0.633,11.171-3.651l34.331-35.922 c4.746-4.966,4.567-12.838-0.398-17.584c-4.966-4.746-12.838-4.567-17.584,0.398l-29.724,31.102l-40.651-7.239l31.76-2.791 l-20.053-15.633c-8.077-6.297-19.729-4.854-26.026,3.223l-19.4,24.885C201.258,224.437,203.281,236.832,212.305,242.792z"/> <circle cx="184.511" cy="178.66" r="27.451"/> <path d="M442.329,312.792c6.712,2.431,14.12-1.041,16.549-7.751c2.43-6.71-1.041-14.12-7.751-16.549l-65.85-23.841 c-3.776-1.367-7.974-0.901-11.358,1.262l-74.638,47.701l-151.777-99.821c-5.963-3.923-13.976-2.267-17.897,3.696 c-3.922,5.962-2.267,13.976,3.696,17.897L292.08,339.81c4.259,2.801,9.763,2.837,14.06,0.092l7.616-4.867l22.239,47.045h-36.899 c-7.137,0-12.922,5.786-12.922,12.922c0,7.137,5.786,12.922,12.922,12.922h145.573c7.137,0,12.922-5.786,12.922-12.922 c0-7.137-5.786-12.922-12.922-12.922h-39.565l-35.926-82.465l13.291-8.495L442.329,312.792z"/> </g> </g> </g> </g>
</svg>