<!DOCTYPE svg PUBLIC "-//W3C//DTD SVG 1.1//EN" "http://www.w3.org/Graphics/SVG/1.1/DTD/svg11.dtd">
<!-- Uploaded to: SVG Repo, www.svgrepo.com, Transformed by: SVG Repo Mixer Tools -->
<svg fill="#602A90" height="800px" width="800px" version="1.1" id="Capa_1" xmlns="http://www.w3.org/2000/svg" xmlns:xlink="http://www.w3.org/1999/xlink" viewBox="0 0 60 60" xml:space="preserve">
<g id="SVGRepo_bgCarrier" stroke-width="0"/>
<g id="SVGRepo_tracerCarrier" stroke-linecap="round" stroke-linejoin="round"/>
<g id="SVGRepo_iconCarrier"> <g> <path d="M55.267,27h-2.244c-4.419,0-8.469,2.493-10.513,6.33c-0.527-0.821-1.137-1.593-1.832-2.295 c-0.948-0.956-1.971-2.399-3.054-3.928C35.147,23.613,32.586,20,29.501,20c-2.998,0-5.467,3.746-7.855,7.369 c-1.069,1.622-2.079,3.154-3.018,4.159c-0.626,0.67-1.158,1.406-1.64,2.169C14.307,29.541,9.7,27,4.714,27 c-1.2,0-2.293,0.557-3,1.526c-0.707,0.971-0.9,2.182-0.532,3.324l8.251,25.577C9.928,58.966,11.348,60,12.965,60h34.051 c1.617,0,3.036-1.033,3.532-2.572l8.251-25.577c0.368-1.143,0.174-2.354-0.532-3.324C57.56,27.557,56.467,27,55.267,27z M56.896,31.237l-8.251,25.577C48.416,57.523,47.761,58,47.016,58H12.965c-0.746,0-1.4-0.477-1.629-1.186L3.085,31.237 c-0.17-0.527-0.08-1.086,0.246-1.533S4.161,29,4.714,29c4.581,0,8.794,2.484,11.023,6.492c0.034,0.123,0.07,0.245,0.106,0.366 c-0.081,0.196-0.14,0.4-0.213,0.599c-0.087,0.236-0.17,0.472-0.244,0.711c-0.066,0.213-0.131,0.425-0.187,0.641 c-0.113,0.431-0.209,0.865-0.282,1.303c-0.021,0.127-0.034,0.254-0.051,0.382c-0.059,0.423-0.1,0.848-0.121,1.275 c-0.005,0.095-0.014,0.188-0.017,0.283c-0.016,0.507-0.001,1.014,0.036,1.522c0.008,0.107,0.019,0.213,0.029,0.32 c0.05,0.524,0.119,1.048,0.227,1.57c0.684,3.308,1.508,6.103,2.52,8.545l0.076,0.185C18.201,54.617,19.18,57,21.027,57h0.203 l0.187-0.079c1.612-0.683,2.219-2.239,2.621-3.27c0.271-0.697,0.512-1.402,0.752-2.105c0.581-1.706,1.13-3.317,2.105-4.744 c1.008-1.475,2.257-2.32,3.425-2.32c0.503,0,1.017,0.153,1.525,0.457c1.623,0.966,2.13,2.907,2.666,4.962 c0.158,0.605,0.314,1.202,0.497,1.763c0.841,2.59,1.956,5.236,3.854,5.236c0,0,0,0,0.001,0c0.016,0,0.031-0.004,0.047-0.004 c0.892-0.022,1.697-0.645,2.39-1.86c1.272-2.23,1.813-4.688,2.335-7.065l0.182-0.823c0.186-0.828,0.39-1.681,0.599-2.552 c0.083-0.345,0.149-0.692,0.206-1.04c0.016-0.096,0.026-0.192,0.04-0.287c0.037-0.262,0.069-0.524,0.092-0.786 c0.009-0.1,0.016-0.199,0.022-0.299c0.019-0.278,0.029-0.555,0.031-0.833c0.001-0.075,0.003-0.15,0.003-0.226 c-0.004-0.729-0.062-1.455-0.173-2.171c-0.005-0.034-0.013-0.068-0.018-0.103c-0.052-0.318-0.115-0.634-0.187-0.947 c-0.016-0.071-0.034-0.141-0.051-0.211c-0.073-0.295-0.154-0.586-0.245-0.876c-0.017-0.055-0.033-0.11-0.051-0.166 c-0.113-0.345-0.235-0.687-0.373-1.023l0.061-0.273C45.232,31.551,48.941,29,53.023,29h2.244c0.553,0,1.058,0.257,1.383,0.704 S57.066,30.71,56.896,31.237z"/> <path d="M16.001,19.92v3.358c-0.595,0.347-1,0.985-1,1.722c0,1.103,0.897,2,2,2s2-0.897,2-2c0-0.737-0.405-1.375-1-1.722V19.92 c3.387-0.488,6-3.401,6-6.92h-14C10.001,16.519,12.614,19.432,16.001,19.92z"/> <path d="M48.11,18l-4.404-8.007c-1.084-0.011-2.152-0.085-3.201-0.22L44.619,18H48.11z"/> <polygon points="53.835,18 49.035,10 45.992,10 50.391,18 "/> <path d="M42.001,18h0.382l-4.33-8.66c-4.461-1.012-8.465-3.167-11.616-6.318l-2.728-2.728c-0.002-0.002-0.003-0.002-0.005-0.004 c-0.084-0.083-0.181-0.143-0.284-0.192c-0.029-0.013-0.058-0.021-0.088-0.032c-0.09-0.032-0.182-0.051-0.277-0.056 C23.035,0.01,23.019,0,23.001,0h-12c-0.552,0-1,0.447-1,1v2h4c0.552,0,1,0.447,1,1s-0.448,1-1,1h-4v6h13.341 C28.117,15.461,34.844,18,42.001,18z M19.001,4c0-0.553,0.448-1,1-1h2v2h-2C19.449,5,19.001,4.553,19.001,4z"/> <path d="M58.001,10h-6.634l4.8,8h1.834c0.552,0,1-0.447,1-1v-6C59.001,10.447,58.553,10,58.001,10z"/> </g> </g>
</svg>