<svg xmlns="http://www.w3.org/2000/svg" version="1.0" width="256.000000pt" height="256.000000pt" viewBox="0 0 256.000000 256.000000" preserveAspectRatio="xMidYMid meet">
<metadata fill="#602a90">
Created by potrace 1.16, written by Peter Selinger 2001-2019
</metadata>
<g transform="translate(0.000000,256.000000) scale(0.100000,-0.100000)" fill="#602a90" stroke="none">
<path d="M1115 2540 c-11 -13 -20 -41 -23 -75 l-4 -55 -103 0 c-85 0 -104 -3 -109 -16 -3 -9 -6 -96 -6 -194 0 -149 3 -181 16 -194 13 -14 63 -16 394 -16 331 0 381 2 394 16 13 13 16 45 16 194 0 98 -3 185 -6 194 -5 13 -24 16 -109 16 l-103 0 -4 55 c-8 91 -15 95 -188 95 -135 0 -148 -2 -165 -20z" fill="#602a90"/>
<path d="M413 2300 c-17 -10 -38 -29 -45 -42 -10 -18 -14 -223 -16 -1043 -2 -561 0 -1049 3 -1085 6 -55 12 -69 40 -97 l33 -33 852 0 852 0 33 33 c28 28 34 42 40 97 3 36 5 524 3 1085 -2 820 -6 1025 -16 1043 -7 13 -28 32 -45 42 -29 18 -52 20 -224 20 l-193 0 0 -85 0 -85 139 0 c105 0 141 -3 150 -14 8 -10 10 -276 9 -987 l-3 -974 -745 0 -745 0 -3 974 c-1 711 1 977 9 987 9 11 45 14 150 14 l139 0 0 85 0 85 -192 0 c-173 0 -196 -2 -225 -20z" fill="#602a90"/>
<path d="M770 1868 c-50 -34 -72 -71 -78 -127 -6 -64 2 -92 34 -130 21 -25 25 -39 21 -69 -12 -97 26 -203 96 -270 54 -52 72 -42 74 41 1 48 7 76 22 101 30 49 45 50 81 9 29 -32 31 -40 28 -97 -4 -102 20 -112 92 -38 58 60 80 121 80 219 0 66 3 79 28 110 23 31 27 46 27 104 0 75 -16 106 -75 147 -44 29 -140 31 -186 3 -31 -19 -32 -19 -60 0 -43 28 -140 26 -184 -3z" fill="#602a90"/>
<path d="M1347 1792 c-21 -23 -22 -66 -1 -86 13 -14 52 -16 269 -16 251 0 254 0 269 22 21 30 20 54 -4 78 -19 19 -33 20 -268 20 -228 0 -250 -2 -265 -18z" fill="#602a90"/>
<path d="M1346 1594 c-22 -21 -20 -67 2 -87 16 -15 50 -17 265 -17 234 0 248 1 267 20 24 24 25 48 4 78 -15 22 -18 22 -269 22 -217 0 -256 -2 -269 -16z" fill="#602a90"/>
<path d="M1342 1398 c-7 -7 -12 -26 -12 -43 0 -17 5 -36 12 -43 9 -9 84 -12 275 -12 l263 0 11 26 c10 28 3 64 -15 76 -20 14 -521 9 -534 -4z" fill="#602a90"/>
<path d="M710 1130 c-25 -25 -26 -62 -2 -83 17 -15 72 -17 590 -17 l571 0 15 22 c21 30 20 54 -4 78 -20 20 -33 20 -585 20 -552 0 -565 0 -585 -20z" fill="#602a90"/>
<path d="M710 920 c-25 -25 -26 -62 -2 -83 17 -15 72 -17 590 -17 l571 0 15 22 c21 30 20 54 -4 78 -20 20 -33 20 -585 20 -552 0 -565 0 -585 -20z" fill="#602a90"/>
<path d="M710 710 c-24 -24 -26 -63 -4 -84 14 -14 81 -16 589 -16 l574 0 15 22 c21 30 20 54 -4 78 -20 20 -33 20 -585 20 -552 0 -565 0 -585 -20z" fill="#602a90"/>
<path d="M730 513 c-39 -14 -53 -69 -24 -97 14 -14 81 -16 589 -16 l575 0 16 25 c21 33 11 73 -22 85 -26 10 -1106 13 -1134 3z" fill="#602a90"/>
</g>
</svg>