<!DOCTYPE svg PUBLIC "-//W3C//DTD SVG 1.1//EN" "http://www.w3.org/Graphics/SVG/1.1/DTD/svg11.dtd">
<!-- Uploaded to: SVG Repo, www.svgrepo.com, Transformed by: SVG Repo Mixer Tools -->
<svg fill="#000000" width="256px" height="256px" viewBox="-4.7 0 142.706 142.706" xmlns="http://www.w3.org/2000/svg">
<g id="SVGRepo_bgCarrier" stroke-width="0"/>
<g id="SVGRepo_tracerCarrier" stroke-linecap="round" stroke-linejoin="round"/>
<g id="SVGRepo_iconCarrier"> <path id="eraser" d="M280.413,784.444l-25.207-28.152a11,11,0,0,0-15.48-.9L156.3,829.128a11.009,11.009,0,0,0-3.607,6.7l-2.663,18.815a10.979,10.979,0,0,0,2.7,8.88l25.208,28.152a11.016,11.016,0,0,0,8.2,3.661h0a10.988,10.988,0,0,0,7.282-2.757l83.429-73.74a11.009,11.009,0,0,0,3.607-6.7l2.662-18.815A10.975,10.975,0,0,0,280.413,784.444Zm-92.3,102.141a2.962,2.962,0,0,1-1.984.752h0a2.964,2.964,0,0,1-2.237-1l-25.207-28.153a2.988,2.988,0,0,1-.736-2.421l2.663-18.816a3.006,3.006,0,0,1,.984-1.827L198.62,802.4a6.965,6.965,0,0,1,2.976,1.96l22.529,25.16-38.24,33.5,5.272,6.017L228.5,836.318a7.017,7.017,0,0,1-.01,1.808l-2.067,14.6Z" transform="translate(-149.918 -752.63)"/> </g>
</svg>