<svg version="1.1" xmlns="http://www.w3.org/2000/svg" xmlns:xlink="http://www.w3.org/1999/xlink" width="697.000000pt" height="673.000000pt" viewBox="0,0,256,247.175"><g fill="#ff0000" fill-rule="nonzero" stroke="none" stroke-width="1" stroke-linecap="butt" stroke-linejoin="miter" stroke-miterlimit="10" stroke-dasharray="" stroke-dashoffset="0" font-family="none" font-weight="none" font-size="none" text-anchor="none" style="mix-blend-mode: normal"><g transform="translate(0.55093,-0.37233) scale(0.36729,0.36729)"><g transform="translate(0,673) scale(0.1,-0.1)"><path d="M50,3355v-3295h3420h3420v3295v3295h-3420h-3420zM6350,3360v-2760h-2880h-2880v2760v2760h2880h2880z"></path><path d="M1760,3365v-1845h1710h1710v1845v1845h-1710h-1710zM4640,3370v-1310h-1170h-1170v1310v1310h1170h1170z"></path><path d="M2530,3515v-925h860h860v925v925h-860h-860zM3710,3515v-385h-320h-320v385v385h320h320z"></path></g></g></g></svg>