<?xml version="1.0" standalone="no"?>
<!DOCTYPE svg PUBLIC "-//W3C//DTD SVG 20010904//EN"
 "http://www.w3.org/TR/2001/REC-SVG-20010904/DTD/svg10.dtd">
<svg version="1.0" xmlns="http://www.w3.org/2000/svg"
 width="697.000000pt" height="673.000000pt" viewBox="0 0 697.000000 673.000000"
 preserveAspectRatio="xMidYMid meet">
<metadata>
Created by potrace 1.16, written by Peter Selinger 2001-2019
</metadata>
<g transform="translate(0.000000,673.000000) scale(0.100000,-0.100000)"
fill="#000000" stroke="none">
<path d="M50 3355 l0 -3295 3420 0 3420 0 0 3295 0 3295 -3420 0 -3420 0 0
-3295z m6300 5 l0 -2760 -2880 0 -2880 0 0 2760 0 2760 2880 0 2880 0 0 -2760z"/>
<path d="M1760 3365 l0 -1845 1710 0 1710 0 0 1845 0 1845 -1710 0 -1710 0 0
-1845z m2880 5 l0 -1310 -1170 0 -1170 0 0 1310 0 1310 1170 0 1170 0 0 -1310z"/>
<path d="M2530 3515 l0 -925 860 0 860 0 0 925 0 925 -860 0 -860 0 0 -925z
m1180 0 l0 -385 -320 0 -320 0 0 385 0 385 320 0 320 0 0 -385z"/>
</g>
</svg>
