<svg version="1.1" xmlns="http://www.w3.org/2000/svg" xmlns:xlink="http://www.w3.org/1999/xlink" width="377.000000pt" height="217.000000pt" viewBox="0,0,256,147.35001"><g fill="#ff0000" fill-rule="nonzero" stroke="none" stroke-width="1" stroke-linecap="butt" stroke-linejoin="miter" stroke-miterlimit="10" stroke-dasharray="" stroke-dashoffset="0" font-family="none" font-weight="none" font-size="none" text-anchor="none" style="mix-blend-mode: normal"><g transform="translate(0.59977,-0.40033) scale(0.67905,0.67905)"><g transform="translate(0,217) scale(0.1,-0.1)"><path d="M372,2113c-26,-5 -54,-56 -117,-213c-228,-568 -216,-1161 34,-1721c39,-86 59,-119 77,-128c14,-6 62,-11 108,-11c66,0 89,4 106,18l23,19l-50,139c-28,76 -65,193 -82,259c-129,503 -94,1040 99,1523c43,108 38,115 -87,118c-49,1 -98,0 -111,-3z"></path><path d="M3193,2113c-47,-9 -47,-26 -5,-135c77,-199 114,-337 142,-528c65,-441 14,-870 -153,-1294l-31,-79l23,-18c18,-15 40,-19 105,-19c117,0 122,3 160,79c143,284 226,642 226,966c0,125 -25,340 -54,465c-55,240 -181,551 -227,563c-26,7 -150,7 -186,0z"></path><path d="M2675,794c-82,-21 -105,-53 -113,-154c-5,-80 10,-139 44,-171c22,-21 37,-24 113,-27c148,-6 185,27 186,167c0,100 -15,145 -57,167c-30,15 -138,27 -173,18z"></path><path d="M941,777c-59,-21 -76,-55 -76,-155c0,-148 30,-182 160,-182c126,0 165,42 165,178c0,83 -22,130 -70,154c-40,21 -128,23 -179,5z"></path><path d="M1483,779c-40,-12 -63,-44 -75,-107c-14,-75 -1,-159 32,-195c26,-30 33,-32 107,-35c145,-7 183,29 183,173c0,100 -16,137 -69,158c-45,18 -127,21 -178,6z"></path><path d="M2025,776c-57,-25 -68,-49 -73,-144c-7,-152 27,-192 166,-192c97,0 132,24 151,103c27,114 -6,217 -76,236c-52,15 -132,13 -168,-3z"></path></g></g></g></svg>