<svg version="1.1" xmlns="http://www.w3.org/2000/svg" xmlns:xlink="http://www.w3.org/1999/xlink" width="782.000000pt" height="221.000000pt" viewBox="0,0,256,72.3375"><g fill="#0000ff" fill-rule="nonzero" stroke="none" stroke-width="1" stroke-linecap="butt" stroke-linejoin="miter" stroke-miterlimit="10" stroke-dasharray="" stroke-dashoffset="0" font-family="none" font-weight="none" font-size="none" text-anchor="none" style="mix-blend-mode: normal"><g transform="translate(0.9821,-1.80567) scale(0.32737,0.32737)"><g transform="translate(0,221) scale(0.1,-0.1)"><path d="M547,1723c-4,-3 -7,-309 -7,-680v-673h600h600v680v680h-593c-327,0 -597,-3 -600,-7zM1440,1050v-380h-300h-300v373c0,206 3,377 7,380c3,4 138,7 300,7h293z"></path><path d="M5877,1723c-4,-3 -7,-309 -7,-680v-673h675h675v680v680h-668c-368,0 -672,-3 -675,-7zM6920,1050v-380h-375h-375v373c0,206 3,377 7,380c3,4 172,7 375,7h368z"></path><path d="M2288,1101c-57,-12 -86,-36 -99,-83c-17,-63 -7,-183 18,-216c39,-53 180,-65 251,-22c37,23 52,68 51,155c0,80 -17,125 -54,146c-36,21 -116,30 -167,20z"></path><path d="M2840,1104c-90,-17 -114,-52 -115,-169c0,-140 34,-179 160,-179c126,0 165,41 165,174c0,85 -20,138 -60,157c-29,14 -114,23 -150,17z"></path><path d="M3361,1097c-68,-19 -85,-49 -89,-160c-3,-101 5,-127 51,-161c21,-16 43,-20 100,-21c131,0 169,38 171,170c1,87 -17,141 -52,159c-40,21 -130,27 -181,13z"></path><path d="M3984,1099c-23,-5 -51,-20 -62,-32c-42,-44 -51,-191 -16,-258c18,-36 67,-54 144,-53c123,1 160,42 160,179c0,89 -20,138 -65,155c-40,15 -117,20 -161,9z"></path><path d="M4531,1100c-52,-11 -70,-25 -88,-67c-16,-40 -17,-180 0,-212c25,-49 62,-66 145,-65c132,0 167,37 167,174c0,87 -17,135 -54,154c-36,19 -117,26 -170,16z"></path><path d="M5090,1103c-95,-16 -115,-47 -115,-175c0,-82 3,-101 21,-125c40,-54 180,-67 252,-23c37,23 52,68 51,155c0,80 -17,125 -54,146c-32,18 -113,30 -155,22z"></path></g></g></g></svg>