<!DOCTYPE svg PUBLIC "-//W3C//DTD SVG 1.1//EN" "http://www.w3.org/Graphics/SVG/1.1/DTD/svg11.dtd">
<!-- Uploaded to: SVG Repo, www.svgrepo.com, Transformed by: SVG Repo Mixer Tools -->
<svg version="1.1" id="Layer_1" xmlns="http://www.w3.org/2000/svg" xmlns:xlink="http://www.w3.org/1999/xlink" viewBox="0 0 392.598 392.598" xml:space="preserve" width="800px" height="800px" fill="#000000">
<g id="SVGRepo_bgCarrier" stroke-width="0"/>
<g id="SVGRepo_tracerCarrier" stroke-linecap="round" stroke-linejoin="round"/>
<g id="SVGRepo_iconCarrier"> <path style="fill:#56ACE0;" d="M176.393,370.747h39.952V257.293c-11.636,10.214-25.212,18.295-39.952,23.855V370.747z"/> <path style="fill:#FFAF40;" d="M294.826,56.63L294.826,56.63c5.56,0,9.956,4.396,9.956,9.891v304.162h39.952V66.521 c0-5.495,4.461-9.891,9.891-9.891l-29.931-29.931L294.826,56.63z"/> <rect x="47.294" y="333.899" style="fill:#56ACE0;" width="39.952" height="36.848"/> <path style="fill:#FFFFFF;" d="M21.824,158.707c0,59.992,48.743,108.8,108.8,108.8s108.8-48.743,108.8-108.8 c0-59.992-48.743-108.8-108.8-108.8S21.824,98.78,21.824,158.707z"/> <g> <path style="fill:#116482;" d="M130.624,28.186c-72.016,0-130.586,58.57-130.586,130.586s58.57,130.586,130.586,130.586 c8.21,0,16.226-0.84,24.048-2.327c-0.129,0.129-0.129,0.129-0.065,0.129v94.449c0,6.012,4.848,10.925,10.925,10.925h61.737 c6.012,0,10.925-4.848,10.925-10.925V232.921c0.065-0.065,0-0.065-0.259,0c14.61-21.075,23.273-46.675,23.273-74.214 C261.21,86.756,202.64,28.186,130.624,28.186z M216.345,370.747h-39.952v-89.535c14.739-5.56,28.251-13.705,39.952-23.855V370.747z M239.359,158.707c0,59.992-48.743,108.8-108.8,108.8s-108.735-48.743-108.735-108.8c0-59.992,48.743-108.8,108.8-108.8 S239.359,98.78,239.359,158.707z"/> <path style="fill:#116482;" d="M389.662,61.479l-58.57-58.57c-3.879-3.879-10.214-3.879-14.093,0l-56.954,56.889 c-6.853,6.853-2.004,18.618,7.758,18.618h14.481v304.162c0,5.495,4.461,9.891,9.891,9.891h63.677c5.495,0,9.891-4.396,9.891-9.891 V78.416h16.743C391.472,78.416,395.868,67.749,389.662,61.479z M344.022,66.521v304.162H304.07V66.521 c0-5.495-4.461-9.891-9.891-9.891h-0.065l29.931-29.931l29.931,29.931C348.482,56.63,344.022,61.026,344.022,66.521z"/> <path style="fill:#116482;" d="M98.171,312.113H36.434c-6.012,0-10.925,4.848-10.925,10.925v58.634 c0,6.012,4.848,10.925,10.925,10.925h61.737c6.012,0,10.925-4.848,10.925-10.925v-58.699 C109.032,316.962,104.183,312.113,98.171,312.113z M87.246,370.747H47.294v-36.848h39.952V370.747z"/> </g> <path style="fill:#FFAF40;" d="M130.624,71.758c-36.848,0-68.331,23.014-81.002,55.467h10.02c6.012,0,10.925,4.848,10.925,10.925 c0,6.012-4.848,10.925-10.925,10.925H44.256c-0.388,3.168-0.517,6.4-0.517,9.632c0,3.232,0.259,6.465,0.517,9.632h7.434 c6.012,0,10.925,4.848,10.925,10.925c0,6.012-4.848,10.925-10.925,10.925h-2.004c12.671,32.517,44.154,55.531,81.002,55.531 c47.968,0,86.949-39.046,86.949-87.014S178.527,71.758,130.624,71.758z"/> <path style="fill:#116482;" d="M130.559,147.846c-9.18,0-16.679-7.499-16.679-16.679c0-9.18,7.499-16.679,16.679-16.679 s16.679,7.499,16.679,16.679c0,6.012,4.848,10.925,10.925,10.925s10.925-4.848,10.925-10.925c0-17.455-11.636-32.129-27.604-36.848 v-6.788c0-6.012-4.848-10.925-10.925-10.925c-6.077,0-10.925,4.848-10.925,10.925v6.788c-15.903,4.719-27.604,19.459-27.604,36.848 c0,21.269,17.261,38.465,38.465,38.465c9.18,0,16.679,7.499,16.679,16.679c0,9.18-7.499,16.679-16.679,16.679 s-16.679-7.499-16.679-16.679c0-6.012-4.848-10.925-10.925-10.925s-10.925,4.848-10.925,10.925 c0,17.455,11.636,32.129,27.604,36.848v6.788c0,6.012,4.848,10.925,10.925,10.925c6.077,0,10.925-4.848,10.925-10.925v-6.788 c15.903-4.719,27.604-19.459,27.604-36.848C169.088,165.107,151.763,147.846,130.559,147.846z"/> </g>
</svg>