<!DOCTYPE svg PUBLIC "-//W3C//DTD SVG 1.1//EN" "http://www.w3.org/Graphics/SVG/1.1/DTD/svg11.dtd">
<!-- Uploaded to: SVG Repo, www.svgrepo.com, Transformed by: SVG Repo Mixer Tools -->
<svg width="800px" height="800px" viewBox="0 0 64 64" xmlns="http://www.w3.org/2000/svg" fill="#000000">
<g id="SVGRepo_bgCarrier" stroke-width="0"/>
<g id="SVGRepo_tracerCarrier" stroke-linecap="round" stroke-linejoin="round"/>
<g id="SVGRepo_iconCarrier"> <g fill="none" fill-rule="evenodd"> <path stroke="#979797" stroke-linecap="round" stroke-width="2" d="M14.7996593,25.8630482 C15.8854457,26.9488346 17.3854457,27.6204075 19.0423,27.6204075 C22.3560085,27.6204075 25.0423,24.934116 25.0423,21.6204075 C25.0423,18.306699 22.3560085,15.6204075 19.0423,15.6204075 L19.0423,10.3577682 L19.0423,5.21253402" transform="matrix(1 0 0 -1 0 32.833)"/> <polygon fill="#116482" points="15.055 25.067 23.03 25.067 23.03 61.067 15.055 61.067"/> <rect width="8" height="5" x="15" y="23" fill="#FFAF40"/> <polyline stroke="#979797" stroke-linecap="round" stroke-width="2" points="43 26.408 43 21.145 43 16" transform="matrix(1 0 0 -1 0 42.408)"/> <circle cx="42.899" cy="10.899" r="7" fill="#D8D8D8" transform="rotate(-45 42.9 10.9)"/> <rect width="8" height="5" x="39" y="23" fill="#FFAF40"/> <polygon fill="#116482" points="39 28 46.975 28 46.975 61 39 61"/> </g> </g>
</svg>