<!DOCTYPE svg PUBLIC "-//W3C//DTD SVG 1.1//EN" "http://www.w3.org/Graphics/SVG/1.1/DTD/svg11.dtd">
<!-- Uploaded to: SVG Repo, www.svgrepo.com, Transformed by: SVG Repo Mixer Tools -->
<svg fill="#602A90" width="800px" height="800px" viewBox="0 0 1000 1000" version="1.1" xmlns="http://www.w3.org/2000/svg" xmlns:xlink="http://www.w3.org/1999/xlink" enable-background="new 0 0 1000 1000" xml:space="preserve" stroke="#602A90" stroke-width="100">
<g id="SVGRepo_bgCarrier" stroke-width="0"/>
<g id="SVGRepo_tracerCarrier" stroke-linecap="round" stroke-linejoin="round" stroke="#CCCCCC" stroke-width="200"> <g> <g transform="translate(0.000000,511.000000) scale(0.100000,-0.100000)"> <path d="M9050,4609.3c-355.5-97.2-654.7-181.6-662.4-186.7c-15.4-17.9,71.6-370.9,97.2-386.2c10.2-5.1,125.3,17.9,253.2,53.7c130.4,35.8,248.1,61.4,260.9,56.3c12.8-5.1-115.1-212.3-283.9-460.4l-309.5-455.2l-94.6,61.4c-291.6,184.2-680.3,335-1061.4,416.9c-258.3,53.7-844,58.8-1117.7,10.2C5014,3519.8,4075.4,2709,3727.6,1645.1c-532-1626.7,340.2-3368.4,1959.1-3910.6c936.1-314.6,2010.3-148.4,2800.6,434.8C9988.6-725.8,10188.1,1443,8914.4,2785.8l-179,186.7l332.5,488.5c373.4,549.9,337.6,537.1,388.8,127.9c17.9-120.2,33.2-230.2,38.4-245.5c5.1-17.9,66.5-17.9,209.7,2.6c189.2,25.6,199.5,30.7,194.4,89.5c-7.7,79.3-189.2,1342.7-194.4,1345.3C9702.1,4783.3,9408,4706.5,9050,4609.3z M7346.6,3258.9c248.1-69.1,611.3-237.9,833.8-386.2c209.7-143.2,544.8-478.3,688-688c148.3-222.5,317.2-588.3,383.6-833.8c84.4-309.5,99.8-890,30.7-1217.4c-102.3-498.7-327.4-923.3-685.4-1299.3C7551.2-2265.5,5842.7-2291.1,4773.6-1222c-897.7,900.3-1040.9,2309.5-340.2,3371c240.4,363.2,718.7,772.4,1112.6,951.4c406.7,184.2,662.4,232.7,1186.7,222.5C7055,3315.2,7185.5,3302.4,7346.6,3258.9z"/> <path d="M4978.2,2448.1L4835,2304.9l138.1-194.4c168.8-237.9,289-483.4,381.1-785.2c63.9-207.2,71.6-268.5,71.6-639.4c2.6-350.4-5.1-439.9-56.3-626.6c-79.3-286.5-245.5-636.8-409.2-849.1l-130.5-171.3l51.2-63.9c28.1-33.3,94.6-99.8,150.9-143.2l102.3-81.9l51.2,61.4c28.1,30.7,117.6,156,196.9,271.1c480.8,713.6,606.1,1647.1,335,2486c-102.3,319.7-314.6,703.3-511.5,928.4l-84.4,97.2L4978.2,2448.1z"/> <path d="M2397.6,3486.5C545.9,3090.1-436.2,1074.7,402.7-608.2c429.7-861.9,1289-1478.3,2207.2-1578l158.6-17.9l7.7-542.2l5.1-544.8h-422c-416.9,0-424.6,0-485.9-63.9c-79.3-76.7-81.9-186.7-10.2-276.2c51.2-66.5,51.2-69.1,478.3-74.2l427.1-7.7l12.8-373.4c7.7-255.8,23-386.2,46-414.3c48.6-56.3,171.4-79.3,240.4-40.9c112.5,58.8,120.2,94.6,122.8,478.3v363.2h406.6c225.1,0,427.1,7.7,450.2,15.3c61.4,25.6,117.6,153.5,99.7,227.6c-7.7,35.8-46,86.9-79.3,115.1c-58.8,46-104.9,51.2-473.2,51.2h-404.1l5.1,542.2l7.7,542.2l207.2,30.7c115.1,15.3,291.6,53.7,396.4,84.4c194.4,58.8,636.9,253.2,636.9,281.3c0,10.2-66.5,84.4-150.9,166.3l-148.3,148.4l-125.3-63.9c-158.6-79.3-414.3-161.2-608.7-194.4c-225.1-40.9-703.3-33.3-931,12.8c-938.6,189.2-1713.6,966.7-1908,1908c-46,227.6-53.7,703.3-12.8,931c97.2,560.1,439.9,1135.6,885,1488.5c703.3,560.1,1636.9,693.1,2478.3,353l227.6-89.5l145.8,143.2c81.8,81.8,138.1,153.5,127.9,163.7c-38.4,40.9-355.5,184.1-524.3,243C3471.8,3545.4,2837.5,3581.2,2397.6,3486.5z"/> </g> </g> </g>
<g id="SVGRepo_iconCarrier"> <g> <g transform="translate(0.000000,511.000000) scale(0.100000,-0.100000)"> <path d="M9050,4609.3c-355.5-97.2-654.7-181.6-662.4-186.7c-15.4-17.9,71.6-370.9,97.2-386.2c10.2-5.1,125.3,17.9,253.2,53.7c130.4,35.8,248.1,61.4,260.9,56.3c12.8-5.1-115.1-212.3-283.9-460.4l-309.5-455.2l-94.6,61.4c-291.6,184.2-680.3,335-1061.4,416.9c-258.3,53.7-844,58.8-1117.7,10.2C5014,3519.8,4075.4,2709,3727.6,1645.1c-532-1626.7,340.2-3368.4,1959.1-3910.6c936.1-314.6,2010.3-148.4,2800.6,434.8C9988.6-725.8,10188.1,1443,8914.4,2785.8l-179,186.7l332.5,488.5c373.4,549.9,337.6,537.1,388.8,127.9c17.9-120.2,33.2-230.2,38.4-245.5c5.1-17.9,66.5-17.9,209.7,2.6c189.2,25.6,199.5,30.7,194.4,89.5c-7.7,79.3-189.2,1342.7-194.4,1345.3C9702.1,4783.3,9408,4706.5,9050,4609.3z M7346.6,3258.9c248.1-69.1,611.3-237.9,833.8-386.2c209.7-143.2,544.8-478.3,688-688c148.3-222.5,317.2-588.3,383.6-833.8c84.4-309.5,99.8-890,30.7-1217.4c-102.3-498.7-327.4-923.3-685.4-1299.3C7551.2-2265.5,5842.7-2291.1,4773.6-1222c-897.7,900.3-1040.9,2309.5-340.2,3371c240.4,363.2,718.7,772.4,1112.6,951.4c406.7,184.2,662.4,232.7,1186.7,222.5C7055,3315.2,7185.5,3302.4,7346.6,3258.9z"/> <path d="M4978.2,2448.1L4835,2304.9l138.1-194.4c168.8-237.9,289-483.4,381.1-785.2c63.9-207.2,71.6-268.5,71.6-639.4c2.6-350.4-5.1-439.9-56.3-626.6c-79.3-286.5-245.5-636.8-409.2-849.1l-130.5-171.3l51.2-63.9c28.1-33.3,94.6-99.8,150.9-143.2l102.3-81.9l51.2,61.4c28.1,30.7,117.6,156,196.9,271.1c480.8,713.6,606.1,1647.1,335,2486c-102.3,319.7-314.6,703.3-511.5,928.4l-84.4,97.2L4978.2,2448.1z"/> <path d="M2397.6,3486.5C545.9,3090.1-436.2,1074.7,402.7-608.2c429.7-861.9,1289-1478.3,2207.2-1578l158.6-17.9l7.7-542.2l5.1-544.8h-422c-416.9,0-424.6,0-485.9-63.9c-79.3-76.7-81.9-186.7-10.2-276.2c51.2-66.5,51.2-69.1,478.3-74.2l427.1-7.7l12.8-373.4c7.7-255.8,23-386.2,46-414.3c48.6-56.3,171.4-79.3,240.4-40.9c112.5,58.8,120.2,94.6,122.8,478.3v363.2h406.6c225.1,0,427.1,7.7,450.2,15.3c61.4,25.6,117.6,153.5,99.7,227.6c-7.7,35.8-46,86.9-79.3,115.1c-58.8,46-104.9,51.2-473.2,51.2h-404.1l5.1,542.2l7.7,542.2l207.2,30.7c115.1,15.3,291.6,53.7,396.4,84.4c194.4,58.8,636.9,253.2,636.9,281.3c0,10.2-66.5,84.4-150.9,166.3l-148.3,148.4l-125.3-63.9c-158.6-79.3-414.3-161.2-608.7-194.4c-225.1-40.9-703.3-33.3-931,12.8c-938.6,189.2-1713.6,966.7-1908,1908c-46,227.6-53.7,703.3-12.8,931c97.2,560.1,439.9,1135.6,885,1488.5c703.3,560.1,1636.9,693.1,2478.3,353l227.6-89.5l145.8,143.2c81.8,81.8,138.1,153.5,127.9,163.7c-38.4,40.9-355.5,184.1-524.3,243C3471.8,3545.4,2837.5,3581.2,2397.6,3486.5z"/> </g> </g> </g>
</svg>