<svg xmlns="http://www.w3.org/2000/svg" version="1.0" width="466.000000pt" height="582.000000pt" viewBox="0 0 466.000000 582.000000" preserveAspectRatio="xMidYMid meet">
<metadata fill="#602a90">
Created by potrace 1.16, written by Peter Selinger 2001-2019
</metadata>
<g transform="translate(0.000000,582.000000) scale(0.100000,-0.100000)" fill="#602a90" stroke="none">
<path d="M3545 5785 c-139 -31 -289 -100 -450 -208 -33 -23 -148 -111 -255 -196 -358 -286 -611 -432 -840 -486 -85 -19 -270 -19 -366 1 -42 8 -79 13 -81 10 -3 -3 16 -31 43 -62 35 -42 66 -65 114 -88 59 -27 77 -31 186 -34 354 -12 832 146 1234 409 158 104 240 145 337 169 126 33 237 22 353 -33 89 -43 229 -183 288 -288 163 -290 187 -623 78 -1057 -14 -53 -55 -196 -91 -317 -101 -339 -109 -384 -110 -620 0 -127 5 -222 13 -260 31 -143 45 -201 52 -208 5 -5 11 35 15 90 23 356 66 564 160 783 240 559 315 770 365 1033 30 160 28 385 -4 527 -30 129 -58 214 -104 305 -171 346 -464 548 -789 544 -48 -1 -115 -7 -148 -14z" fill="#602a90"/>
<path d="M940 5405 c-8 -2 -49 -9 -90 -15 -340 -56 -598 -278 -716 -619 -54 -156 -74 -272 -81 -472 -7 -198 5 -319 43 -468 49 -187 114 -316 284 -561 283 -408 395 -730 475 -1364 61 -489 123 -724 272 -1019 137 -274 410 -570 588 -636 117 -44 257 -19 291 53 16 32 16 57 0 353 -26 514 -19 872 24 1093 69 358 244 655 447 756 76 38 80 39 188 39 98 0 116 -3 167 -27 103 -48 194 -150 270 -303 187 -374 228 -882 142 -1729 -28 -280 -26 -315 27 -379 54 -65 140 -72 235 -17 59 33 223 193 312 305 284 353 456 771 524 1275 20 150 15 503 -11 699 -41 323 -22 589 70 970 17 68 33 130 36 137 3 8 1 14 -5 14 -17 0 -90 -152 -128 -265 -74 -223 -109 -487 -124 -940 -12 -362 -25 -484 -76 -715 -43 -191 -123 -408 -205 -557 -91 -164 -258 -375 -315 -399 -64 -27 -92 11 -81 109 3 29 13 115 21 192 78 696 1 1187 -241 1540 -67 97 -238 267 -316 314 -285 169 -599 97 -918 -211 -154 -148 -260 -347 -318 -593 -72 -302 -73 -660 -5 -1219 17 -139 13 -203 -15 -237 -39 -48 -102 -2 -202 149 -225 342 -309 657 -339 1277 -16 344 -30 553 -41 620 -24 149 -86 297 -224 535 -43 74 -96 166 -118 204 -106 187 -224 506 -269 728 -32 163 -32 435 0 556 45 164 106 268 223 376 241 223 663 287 1173 176 49 -11 91 -18 93 -16 6 6 -51 39 -152 89 -270 134 -495 195 -750 202 -82 2 -157 2 -165 0z" fill="#602a90"/>
</g>
</svg>