<!DOCTYPE svg PUBLIC "-//W3C//DTD SVG 1.1//EN" "http://www.w3.org/Graphics/SVG/1.1/DTD/svg11.dtd">
<!-- Uploaded to: SVG Repo, www.svgrepo.com, Transformed by: SVG Repo Mixer Tools -->
<svg fill="#602A90" width="800px" height="800px" viewBox="0 0 64 64" id="Layer_1_1_" version="1.1" xml:space="preserve" xmlns="http://www.w3.org/2000/svg" xmlns:xlink="http://www.w3.org/1999/xlink">
<g id="SVGRepo_bgCarrier" stroke-width="0"/>
<g id="SVGRepo_tracerCarrier" stroke-linecap="round" stroke-linejoin="round"/>
<g id="SVGRepo_iconCarrier">
<path d="M46.301,1h-0.194c-2.206,0-4.385,0.579-6.301,1.673l-0.829,0.474c-4.243,2.424-9.711,2.424-13.954,0l-0.83-0.474 C22.278,1.579,20.099,1,17.893,1h-0.194C10.697,1,5,6.697,5,13.699c0,1.657,0.318,3.275,0.946,4.809l3.102,7.583 c3.302,8.072,5.525,16.552,6.606,25.206l1.071,8.57C16.949,61.653,18.475,63,20.274,63c1.455,0,2.753-0.87,3.307-2.215l5.201-12.63 C29.321,46.846,30.584,46,32,46s2.679,0.846,3.217,2.155l5.201,12.63C40.972,62.13,42.271,63,43.726,63 c1.8,0,3.326-1.347,3.549-3.133l1.071-8.57c1.082-8.653,3.304-17.134,6.606-25.206l3.103-7.583C58.682,16.974,59,15.356,59,13.699 C59,6.697,53.303,1,46.301,1z M56.204,17.751l-1.008,2.463L51,21.612v-3.889l-3.143-5.238l-1.715,1.029L49,18.277v3.336l-5.2-1.733 l-5.425,4.34l1.249,1.562L43,23.08v4.334l3.293,3.293l1.414-1.414L45,26.586v-4.199l5,1.667l4.197-1.399l-1.096,2.679 c-2.131,5.21-3.819,10.588-5.053,16.071l-4.521-2.261L40,36.5V32h-2v5.5l3.106,2.329l-4.553,2.276l0.895,1.789L43,41.118 l4.623,2.312c-0.513,2.522-0.942,5.062-1.262,7.619l-1.071,8.57C45.191,60.406,44.519,61,43.726,61 c-0.642,0-1.213-0.383-1.458-0.977l-5.201-12.63C36.218,45.332,34.229,44,32,44s-4.218,1.332-5.067,3.393l-5.201,12.631 C21.488,60.617,20.916,61,20.274,61c-0.793,0-1.466-0.594-1.564-1.381l-1.071-8.57c-0.352-2.821-0.837-5.622-1.425-8.399 l4.517-1.506l2.963,2.963l4.549-1.137l-0.485-1.94l-3.451,0.863l-2.163-2.163L23.721,35H30v-2h-5.523l1.753-4.382l-3.675-2.45 l-1.109,1.664l2.325,1.55L22.323,33h-0.043l-2.07,6.209l-4.427,1.475c-1.218-5.233-2.846-10.369-4.883-15.35l-3.103-7.583 C7.268,16.458,7,15.095,7,13.699c0-2.289,0.729-4.408,1.959-6.15L12,11.351v4.413l-1.895,3.789l1.789,0.895L14,16.236v-3.759 l3.244,1.297l2.837,6.62l1.838-0.788l-2.537-5.92l3.236-0.809l2.214-3.322l-1.664-1.109l-1.786,2.678l-3.312,0.828l-4.454-1.782 l-3.332-4.165C12.209,4.148,14.821,3,17.699,3h0.194c1.859,0,3.694,0.487,5.308,1.41l0.83,0.474c4.846,2.769,11.092,2.769,15.939,0 l0.829-0.474C42.413,3.487,44.248,3,46.107,3h0.194C52.2,3,57,7.8,57,13.699C57,15.095,56.732,16.458,56.204,17.751z"/>
</g>
</svg>